{"title":"Sundays.At.Tiffanys.2010.DVDRip.XviD-SPRiNTER","uid":6775137,"size":744676861,"categoryP":"video","categoryS":"movies","magnet":"?xt=urn:btih:ef0f419f3987b7f5725ab799635dcc85c9898356&amp;dn=Sundays.At.Tiffanys.2010.DVDRip.XviD-SPRiNTER&amp;tr=udp%3A%2F%2Ftracker.openbittorrent.com%3A80&amp;tr=udp%3A%2F%2Fopen.demonii.com%3A1337&amp;tr=udp%3A%2F%2Ftracker.coppersurfer.tk%3A6969&amp;tr=udp%3A%2F%2Fexodus.desync.com%3A6969","seeders":0,"leechers":0,"uploader":"TvTeam","files":5,"time":1319714740,"description":". \n &lt;a href=&quot;\nhttp://www.torrenting.com&quot; rel=&quot;nofollow&quot; target=&quot;_NEW&quot;&gt;\nhttp://www.torrenting.com&lt;/a&gt;          :     Once &amp; For all ;)\n\n\n               www . Torrenting . Com \n\n(((((((((((((= Enjoy No RAR releases =))))))))))))))))))))\n\n\n...................................NFO:....................................\n\n.\n                                                     \n                                                   \n                                                         \n                                                          \n                                                           \n                                                          \n                                                          \n                                                          \n                                                           \n                                                         \n                                                          \n                                                        \n                                                      \n                                     \n                                                 \n                                                   \n                                             \n                                              \n                                                     \n                                                      \n                                                      \n                                                      \n                                                    \n                                                     \n                                                   \n                                                     \n                                                     \n                                                      \n                                                     \n                                                      \n                                                    \n                 ARTiCHOKE                        \n                                                \n                      \n                                                        \n                                                      \n                                                      \n                                               \n                                          \n                                                   \n                                            \n                                                    \n                                                       \n                                                        \n                                                      \n                                                \n                                                        \n                                                 \n                                              \n                                                  \n                                                \n                                                  \n                                        \n\n      \n                                \n      SPRiNTER proudly presents...     \n                                \n      \n \n Sundays.At.Tiffanys.2010.DVDRip.XviD-SPRiNTER &lt;a href=&quot; http://www.imdb.com/title/tt1743360/&quot; rel=&quot;nofollow&quot; target=&quot;_NEW&quot;&gt; http://www.imdb.com/title/tt1743360/&lt;/a&gt;\n \n\n Date: 2011.10\n\n \n\n      \n                 \n      Release notes     \n                 \n      \n\n \n\n\tEnjoy!\n\n\n      \n           \n     Greetings    \n           \n      \n\n\nNTX FiCO HNR CiNEFiLE AEN HUMANiSM TASTE 0MNiDVD\n\n\n      \n           \n      Details     \n           \n      \n\nFormat                           : AVI\nFormat/Info                      : Audio Video Interleave\nFile size                        : 701 MiB\nDuration                         : 1h 26mn\nOverall bit rate mode            : Variable\nOverall bit rate                 : 1 131 Kbps\nWriting application              : VirtualDubMod 1.5.10.2 (build 2540/release)\nWriting library                  : VirtualDubMod build 2540/release\n\nVideo\nID                               : 0\nFormat                           : MPEG-4 Visual\nFormat profile                   : Advanced Simple@L5\nFormat settings, BVOP            : 2\nFormat settings, QPel            : No\nFormat settings, GMC             : No warppoints\nFormat settings, Matrix          : Default (H.263)\nCodec ID                         : XVID\nCodec ID/Hint                    : XviD\nDuration                         : 1h 26mn\nBit rate                         : 989 Kbps\nWidth                            : 576 pixels\nHeight                           : 320 pixels\nDisplay aspect ratio             : 16:9\nFrame rate                       : 23.976 fps\nColor space                      : YUV\nChroma subsampling               : 4:2:0\nBit depth                        : 8 bits\nScan type                        : Progressive\nCompression mode                 : Lossy\nBits/(Pixel*Frame)               : 0.224\nStream size                      : 613 MiB (87%)\nWriting library                  : XviD 61\n\nAudio\nID                               : 1\nFormat                           : MPEG Audio\nFormat version                   : Version 1\nFormat profile                   : Layer 3\nMode                             : Joint stereo\nMode extension                   : MS Stereo\nCodec ID                         : 55\nCodec ID/Hint                    : MP3\nDuration                         : 1h 26mn\nBit rate mode                    : Variable\nBit rate                         : 130 Kbps\nMinimum bit rate                 : 128 Kbps\nChannel(s)                       : 2 channels\nSampling rate                    : 48.0 KHz\nCompression mode                 : Lossy\nStream size                      : 80.5 MiB (11%)\nAlignment                        : Aligned on interleaves\nInterleave, duration             : 24 ms (0.58 video frame)\nInterleave, preload duration     : 141 ms\nWriting library                  : LAME3.95 \nEncoding settings                : -m j -V 4 -q 3 -lowpass 18 --vbr-old -b 128","torrent":{"xt":"urn:btih:ef0f419f3987b7f5725ab799635dcc85c9898356","amp;dn":"Sundays.At.Tiffanys.2010.DVDRip.XviD-SPRiNTER","amp;tr":["udp%3A%2F%2Ftracker.openbittorrent.com%3A80","udp%3A%2F%2Fopen.demonii.com%3A1337","udp%3A%2F%2Ftracker.coppersurfer.tk%3A6969","udp%3A%2F%2Fexodus.desync.com%3A6969"],"infoHash":"ef0f419f3987b7f5725ab799635dcc85c9898356","infoHashBuffer":{"type":"Buffer","data":[239,15,65,159,57,135,183,245,114,90,183,153,99,93,204,133,201,137,131,86]},"announce":[],"urlList":[]}}